<svg viewBox="0 0 400 300" xmlns="http://www.w3.org/2000/svg">
  <defs>
    <linearGradient id="digitalMarketingGradient" x1="0%" y1="0%" x2="100%" y2="100%">
      <stop offset="0%" style="stop-color:#F5F0E6;stop-opacity:1" />
      <stop offset="100%" style="stop-color:#4A7C59;stop-opacity:1" />
    </linearGradient>
  </defs>
  
  <!-- Background -->
  <rect width="400" height="300" fill="url(#digitalMarketingGradient)"/>
  
  <!-- Main container -->
  <rect x="50" y="50" width="300" height="180" rx="12" fill="#F9F9F7" stroke="#4A7C59" stroke-width="3"/>
  
  <!-- Header -->
  <rect x="60" y="60" width="280" height="30" fill="#4A7C59"/>
  <text x="85" y="80" fill="#F5F0E6" font-family="Arial" font-size="16" font-weight="bold">Digital Marketing</text>
  
  <!-- Dashboard mockup -->
  <rect x="80" y="110" width="140" height="90" fill="#F5F0E6" stroke="#C56B47" stroke-width="2"/>
  <rect x="85" y="115" width="130" height="15" fill="#C56B47"/>
  <text x="90" y="125" fill="#F5F0E6" font-family="Arial" font-size="8">Campaign Performance</text>
  
  <!-- Performance metrics -->
  <rect x="90" y="135" width="60" height="25" fill="#FFF" stroke="#4A7C59"/>
  <text x="95" y="145" fill="#1C1C1C" font-family="Arial" font-size="6">Cost per Lead</text>
  <text x="95" y="155" fill="#C56B47" font-family="Arial" font-size="8" font-weight="bold">$85 → $32</text>
  
  <rect x="155" y="135" width="60" height="25" fill="#FFF" stroke="#4A7C59"/>
  <text x="160" y="145" fill="#1C1C1C" font-family="Arial" font-size="6">Monthly Leads</text>
  <text x="160" y="155" fill="#C56B47" font-family="Arial" font-size="8" font-weight="bold">15 → 65</text>
  
  <!-- ROI chart -->
  <rect x="90" y="165" width="120" height="30" fill="#F9F9F7" stroke="#A8BFA3"/>
  <path d="M95 185 L110 180 L125 175 L140 170 L155 165 L170 160 L185 155 L200 150" 
        stroke="#C56B47" stroke-width="3" fill="none"/>
  <circle cx="200" cy="150" r="3" fill="#4A7C59"/>
  
  <!-- Social media icons -->
  <circle cx="250" cy="130" r="15" fill="#1877F2"/>
  <text x="245" y="135" fill="#FFF" font-family="Arial" font-size="12" font-weight="bold">f</text>
  
  <circle cx="280" cy="130" r="15" fill="#1DA1F2"/>
  <path d="M275 130 Q280 125 285 130 Q280 135 275 130" fill="#FFF"/>
  
  <rect x="240" y="155" width="60" height="25" fill="#0077B5"/>
  <text x="245" y="170" fill="#FFF" font-family="Arial" font-size="8">LinkedIn Ads</text>
  
  <!-- Google Ads mockup -->
  <rect x="240" y="185" width="60" height="12" fill="#4285F4"/>
  <text x="245" y="193" fill="#FFF" font-family="Arial" font-size="6">Google Ads</text>
  
  <!-- Service highlights -->
  <rect x="70" y="210" width="260" height="25" fill="#4A7C59" opacity="0.9"/>
  <text x="85" y="225" fill="#F5F0E6" font-family="Arial" font-size="12">Lead Generation • ROI Optimization • Multi-Platform</text>
  
  <!-- Legal disclaimer -->
  <text x="280" y="285" fill="#666666" font-family="Arial" font-size="8" opacity="0.7">FICTIONAL DEMONSTRATION</text>
</svg>