<svg viewBox="0 0 400 300" xmlns="http://www.w3.org/2000/svg">
  <defs>
    <linearGradient id="webDevGradient" x1="0%" y1="0%" x2="100%" y2="100%">
      <stop offset="0%" style="stop-color:#F9F9F7;stop-opacity:1" />
      <stop offset="100%" style="stop-color:#1B3A2F;stop-opacity:1" />
    </linearGradient>
  </defs>
  
  <!-- Background -->
  <rect width="400" height="300" fill="url(#webDevGradient)"/>
  
  <!-- Main container -->
  <rect x="50" y="50" width="300" height="180" rx="12" fill="#F9F9F7" stroke="#1B3A2F" stroke-width="3"/>
  
  <!-- Header -->
  <rect x="60" y="60" width="280" height="30" fill="#1B3A2F"/>
  <text x="75" y="80" fill="#F5F0E6" font-family="Arial" font-size="16" font-weight="bold">Website Development</text>
  
  <!-- Desktop mockup -->
  <rect x="80" y="110" width="120" height="80" rx="6" fill="#1C1C1C" stroke="#4A7C59" stroke-width="2"/>
  <rect x="85" y="115" width="110" height="65" fill="#F5F0E6"/>
  
  <!-- Website elements -->
  <rect x="90" y="120" width="100" height="8" fill="#1B3A2F"/>
  <rect x="90" y="135" width="45" height="6" fill="#4A7C59"/>
  <rect x="90" y="145" width="45" height="6" fill="#4A7C59"/>
  <rect x="90" y="155" width="30" height="8" fill="#C56B47"/>
  
  <!-- Form/booking area -->
  <rect x="145" y="135" width="40" height="35" fill="#F9F9F7" stroke="#A8BFA3"/>
  <rect x="148" y="138" width="34" height="6" fill="#1B3A2F"/>
  <rect x="148" y="148" width="20" height="4" fill="#4A7C59"/>
  <rect x="148" y="155" width="20" height="4" fill="#4A7C59"/>
  <rect x="148" y="162" width="15" height="6" fill="#C56B47"/>
  
  <!-- Mobile mockup -->
  <rect x="220" y="100" width="50" height="90" rx="8" fill="#1C1C1C"/>
  <rect x="225" y="108" width="40" height="70" fill="#F5F0E6"/>
  
  <!-- Mobile content -->
  <rect x="228" y="112" width="34" height="5" fill="#1B3A2F"/>
  <rect x="228" y="122" width="15" height="4" fill="#4A7C59"/>
  <rect x="228" y="130" width="15" height="4" fill="#4A7C59"/>
  <rect x="228" y="138" width="12" height="5" fill="#C56B47"/>
  
  <!-- Responsive icons -->
  <circle cx="290" cy="130" r="15" fill="#4A7C59"/>
  <rect x="283" y="126" width="14" height="8" fill="#F5F0E6"/>
  <rect x="285" y="128" width="4" height="4" fill="#1B3A2F"/>
  <rect x="291" y="128" width="4" height="4" fill="#1B3A2F"/>
  
  <!-- Code symbols -->
  <text x="290" y="170" fill="#A8BFA3" font-family="monospace" font-size="20">&lt;/&gt;</text>
  
  <!-- Service highlights -->
  <rect x="70" y="200" width="260" height="25" fill="#1B3A2F" opacity="0.9"/>
  <text x="80" y="215" fill="#F5F0E6" font-family="Arial" font-size="12">Professional • Mobile-Optimized • Conversion-Focused</text>
  
  <!-- Legal disclaimer -->
  <text x="280" y="285" fill="#666666" font-family="Arial" font-size="8" opacity="0.7">FICTIONAL DEMONSTRATION</text>
</svg>