<svg viewBox="0 0 400 300" xmlns="http://www.w3.org/2000/svg">
  <defs>
    <linearGradient id="wellnessGradient" x1="0%" y1="0%" x2="100%" y2="100%">
      <stop offset="0%" style="stop-color:#F9F9F7;stop-opacity:1" />
      <stop offset="100%" style="stop-color:#A8BFA3;stop-opacity:1" />
    </linearGradient>
  </defs>
  
  <!-- Background -->
  <rect width="400" height="300" fill="url(#wellnessGradient)"/>
  
  <!-- Laptop mockup -->
  <rect x="50" y="80" width="180" height="120" rx="8" fill="#1B3A2F" stroke="#A8BFA3" stroke-width="2"/>
  <rect x="55" y="85" width="170" height="100" fill="#F5F0E6"/>
  
  <!-- Website elements -->
  <rect x="60" y="90" width="160" height="15" fill="#A8BFA3"/>
  <rect x="60" y="110" width="75" height="8" fill="#4A7C59"/>
  <rect x="60" y="125" width="75" height="8" fill="#4A7C59"/>
  <rect x="60" y="140" width="50" height="12" fill="#C56B47"/>
  
  <!-- Calendar widget -->
  <rect x="145" y="110" width="70" height="65" fill="#F9F9F7" stroke="#A8BFA3"/>
  <rect x="150" y="115" width="60" height="10" fill="#1B3A2F"/>
  <circle cx="155" cy="130" r="3" fill="#4A7C59"/>
  <circle cx="165" cy="130" r="3" fill="#4A7C59"/>
  <circle cx="175" cy="130" r="3" fill="#C56B47"/>
  <circle cx="185" cy="130" r="3" fill="#4A7C59"/>
  
  <!-- Mobile mockup -->
  <rect x="260" y="60" width="80" height="140" rx="15" fill="#1B3A2F"/>
  <rect x="267" y="70" width="66" height="115" fill="#F5F0E6"/>
  <rect x="270" y="75" width="60" height="8" fill="#A8BFA3"/>
  <rect x="270" y="90" width="25" height="5" fill="#4A7C59"/>
  <rect x="270" y="100" width="35" height="5" fill="#4A7C59"/>
  <rect x="270" y="110" width="20" height="8" fill="#C56B47"/>
  
  <!-- Wellness icons -->
  <circle cx="320" cy="140" r="15" fill="#A8BFA3" opacity="0.6"/>
  <path d="M315 140 L320 135 L325 140 L320 145 Z" fill="#F5F0E6"/>
  
  <circle cx="80" cy="40" r="12" fill="#4A7C59" opacity="0.7"/>
  <rect x="76" y="36" width="8" height="8" fill="#F5F0E6"/>
  
  <!-- Metrics -->
  <rect x="280" y="20" width="110" height="25" fill="#1B3A2F" opacity="0.9"/>
  <text x="285" y="35" fill="#F5F0E6" font-family="Arial" font-size="10">0 → 50 leads/month</text>
  
  <!-- Legal disclaimer -->
  <text x="300" y="290" fill="#666666" font-family="Arial" font-size="8" opacity="0.7">FICTIONAL DEMONSTRATION</text>
</svg>