<svg viewBox="0 0 400 300" xmlns="http://www.w3.org/2000/svg">
  <defs>
    <linearGradient id="landscapeGradient" x1="0%" y1="0%" x2="100%" y2="100%">
      <stop offset="0%" style="stop-color:#F5F0E6;stop-opacity:1" />
      <stop offset="100%" style="stop-color:#4A7C59;stop-opacity:1" />
    </linearGradient>
  </defs>
  
  <!-- Background -->
  <rect width="400" height="300" fill="url(#landscapeGradient)"/>
  
  <!-- Seasonal automation dashboard -->
  <rect x="30" y="30" width="340" height="200" rx="8" fill="#F9F9F7" stroke="#A8BFA3" stroke-width="2"/>
  
  <!-- Header -->
  <rect x="35" y="35" width="330" height="25" fill="#4A7C59"/>
  <text x="40" y="50" fill="#F5F0E6" font-family="Arial" font-size="12">Green Valley Landscaping - Seasonal Automation</text>
  
  <!-- Weather trigger section -->
  <rect x="40" y="70" width="100" height="120" fill="#F5F0E6" stroke="#4A7C59"/>
  <rect x="45" y="75" width="90" height="15" fill="#1B3A2F"/>
  <text x="48" y="85" fill="#F5F0E6" font-family="Arial" font-size="8">Weather Triggers</text>
  
  <!-- Weather icons -->
  <circle cx="70" cy="105" r="8" fill="#C29D49"/>
  <path d="M65 105 Q70 100 75 105 Q70 110 65 105" fill="#F5F0E6"/>
  <text x="85" y="109" fill="#1C1C1C" font-family="Arial" font-size="6">Fall cleanup alerts</text>
  
  <g transform="translate(60, 125)">
    <circle cx="10" cy="0" r="6" fill="#E3F2FD"/>
    <path d="M7 -3 L10 0 L13 -3" fill="#FFF"/>
    <path d="M7 3 L10 0 L13 3" fill="#FFF"/>
    <path d="M4 0 L10 0 L16 0" fill="#FFF"/>
  </g>
  <text x="85" y="129" fill="#1C1C1C" font-family="Arial" font-size="6">Winter prep triggers</text>
  
  <circle cx="70" cy="145" r="8" fill="#8BC34A"/>
  <rect x="66" y="141" width="8" height="8" fill="#F5F0E6"/>
  <rect x="68" y="143" width="4" height="4" fill="#8BC34A"/>
  <text x="85" y="149" fill="#1C1C1C" font-family="Arial" font-size="6">Spring service alerts</text>
  
  <!-- Customer segmentation -->
  <rect x="150" y="70" width="100" height="120" fill="#F5F0E6" stroke="#A8BFA3"/>
  <rect x="155" y="75" width="90" height="15" fill="#A8BFA3"/>
  <text x="158" y="85" fill="#1C1C1C" font-family="Arial" font-size="8">Customer Segments</text>
  
  <!-- Residential customers -->
  <rect x="160" y="100" width="80" height="20" fill="#C56B47"/>
  <text x="165" y="110" fill="#F5F0E6" font-family="Arial" font-size="6">Residential (320 customers)</text>
  <text x="165" y="117" fill="#F5F0E6" font-family="Arial" font-size="5">Seasonal lawn care</text>
  
  <!-- Commercial customers -->
  <rect x="160" y="125" width="80" height="20" fill="#4A7C59"/>
  <text x="165" y="135" fill="#F5F0E6" font-family="Arial" font-size="6">Commercial (80 customers)</text>
  <text x="165" y="142" fill="#F5F0E6" font-family="Arial" font-size="5">Year-round maintenance</text>
  
  <!-- Upsell opportunities -->
  <rect x="160" y="150" width="80" height="25" fill="#C29D49"/>
  <text x="165" y="160" fill="#1C1C1C" font-family="Arial" font-size="6">Upsell Campaigns</text>
  <text x="165" y="169" fill="#1C1C1C" font-family="Arial" font-size="5">• Tree trimming</text>
  <text x="165" y="176" fill="#1C1C1C" font-family="Arial" font-size="5">• Mulch installation</text>
  
  <!-- Performance metrics -->
  <rect x="260" y="70" width="100" height="120" fill="#F5F0E6" stroke="#C56B47"/>
  <rect x="265" y="75" width="90" height="15" fill="#C56B47"/>
  <text x="268" y="85" fill="#F5F0E6" font-family="Arial" font-size="8">Results</text>
  
  <!-- Booking rate -->
  <text x="270" y="105" fill="#1C1C1C" font-family="Arial" font-size="7">Seasonal Bookings:</text>
  <text x="270" y="118" fill="#C56B47" font-family="Arial" font-size="8" font-weight="bold">60% → 87%</text>
  <text x="270" y="130" fill="#4A7C59" font-family="Arial" font-size="7">45% increase</text>
  
  <!-- Time savings -->
  <text x="270" y="150" fill="#1C1C1C" font-family="Arial" font-size="7">Admin Time:</text>
  <text x="270" y="163" fill="#C56B47" font-family="Arial" font-size="8" font-weight="bold">25h → 5h/week</text>
  <text x="270" y="175" fill="#4A7C59" font-family="Arial" font-size="7">80% reduction</text>
  
  <!-- Landscaping equipment -->
  <g transform="translate(60, 245)">
    <!-- Lawn mower -->
    <rect x="0" y="10" width="25" height="15" fill="#4A7C59"/>
    <rect x="5" y="5" width="15" height="8" fill="#C56B47"/>
    <circle cx="5" cy="27" r="4" fill="#1C1C1C"/>
    <circle cx="20" cy="27" r="4" fill="#1C1C1C"/>
    <!-- Handle -->
    <rect x="22" y="0" width="2" height="15" fill="#1C1C1C"/>
  </g>
  
  <!-- Trees -->
  <g transform="translate(130, 240)">
    <rect x="5" y="15" width="4" height="15" fill="#8B4513"/>
    <circle cx="7" cy="15" r="8" fill="#4A7C59"/>
    <circle cx="4" cy="12" r="5" fill="#8BC34A"/>
    <circle cx="10" cy="12" r="5" fill="#8BC34A"/>
  </g>
  
  <!-- Seasonal calendar -->
  <rect x="220" y="245" width="35" height="25" fill="#A8BFA3"/>
  <rect x="225" y="250" width="25" height="15" fill="#F5F0E6"/>
  <!-- Spring -->
  <rect x="227" y="252" width="5" height="3" fill="#8BC34A"/>
  <!-- Summer -->
  <rect x="233" y="252" width="5" height="3" fill="#FFD700"/>
  <!-- Fall -->
  <rect x="239" y="252" width="5" height="3" fill="#FF8C00"/>
  <!-- Winter -->
  <rect x="227" y="257" width="5" height="3" fill="#87CEEB"/>
  <rect x="233" y="257" width="5" height="3" fill="#87CEEB"/>
  <rect x="239" y="257" width="5" height="3" fill="#87CEEB"/>
  
  <!-- Automation gears -->
  <circle cx="290" cy="257" r="8" fill="#1C1C1C"/>
  <circle cx="290" cy="257" r="5" fill="#A8BFA3"/>
  <circle cx="290" cy="257" r="2" fill="#F5F0E6"/>
  
  <circle cx="305" cy="252" r="6" fill="#1C1C1C"/>
  <circle cx="305" cy="252" r="4" fill="#C56B47"/>
  <circle cx="305" cy="252" r="1" fill="#F5F0E6"/>
  
  <!-- Revenue increase -->
  <rect x="320" y="245" width="70" height="25" fill="#4A7C59" opacity="0.9"/>
  <text x="325" y="255" fill="#F5F0E6" font-family="Arial" font-size="8">45% revenue increase</text>
  <text x="325" y="267" fill="#C29D49" font-family="Arial" font-size="8">80% automation</text>
  
  <!-- Legal disclaimer -->
  <text x="300" y="290" fill="#666666" font-family="Arial" font-size="8" opacity="0.7">FICTIONAL DEMONSTRATION</text>
</svg>