<svg viewBox="0 0 400 300" xmlns="http://www.w3.org/2000/svg">
  <defs>
    <linearGradient id="vetGradient" x1="0%" y1="0%" x2="100%" y2="100%">
      <stop offset="0%" style="stop-color:#F9F9F7;stop-opacity:1" />
      <stop offset="100%" style="stop-color:#A8BFA3;stop-opacity:1" />
    </linearGradient>
  </defs>
  
  <!-- Background -->
  <rect width="400" height="300" fill="url(#vetGradient)"/>
  
  <!-- Veterinary automation dashboard -->
  <rect x="30" y="35" width="340" height="195" rx="8" fill="#F9F9F7" stroke="#C56B47" stroke-width="2"/>
  
  <!-- Header -->
  <rect x="35" y="40" width="330" height="25" fill="#A8BFA3"/>
  <text x="40" y="55" fill="#1C1C1C" font-family="Arial" font-size="12">Caring Paws Veterinary - Patient Communication</text>
  
  <!-- Pet lifecycle automation -->
  <rect x="40" y="75" width="150" height="115" fill="#F5F0E6" stroke="#A8BFA3"/>
  <rect x="45" y="80" width="140" height="15" fill="#4A7C59"/>
  <text x="48" y="90" fill="#F5F0E6" font-family="Arial" font-size="8">Pet Lifecycle Automation</text>
  
  <!-- Vaccination reminders -->
  <circle cx="70" cy="110" r="8" fill="#C56B47"/>
  <path d="M67 107 L70 110 L73 107 M67 113 L70 110 L73 113" fill="#F5F0E6" stroke="#F5F0E6" stroke-width="1"/>
  <text x="85" y="114" fill="#1C1C1C" font-family="Arial" font-size="6">Vaccination reminders</text>
  
  <!-- Appointment confirmations -->
  <circle cx="70" cy="130" r="8" fill="#4A7C59"/>
  <text x="67" y="134" fill="#F5F0E6" font-family="Arial" font-size="6">📅</text>
  <text x="85" y="134" fill="#1C1C1C" font-family="Arial" font-size="6">Appointment confirmations</text>
  
  <!-- Post-visit care -->
  <circle cx="70" cy="150" r="8" fill="#A8BFA3"/>
  <text x="67" y="154" fill="#1C1C1C" font-family="Arial" font-size="6">💊</text>
  <text x="85" y="154" fill="#1C1C1C" font-family="Arial" font-size="6">Post-visit care instructions</text>
  
  <!-- Wellness checkups -->
  <circle cx="70" cy="170" r="8" fill="#C29D49"/>
  <text x="67" y="174" fill="#1C1C1C" font-family="Arial" font-size="6">❤️</text>
  <text x="85" y="174" fill="#1C1C1C" font-family="Arial" font-size="6">Annual wellness reminders</text>
  
  <!-- Communication channels -->
  <rect x="210" y="75" width="150" height="115" fill="#F5F0E6" stroke="#C56B47"/>
  <rect x="215" y="80" width="140" height="15" fill="#C56B47"/>
  <text x="218" y="90" fill="#F5F0E6" font-family="Arial" font-size="8">Multi-Channel Communication</text>
  
  <!-- SMS messages -->
  <rect x="220" y="105" width="60" height="20" fill="#F9F9F7" stroke="#4A7C59"/>
  <text x="225" y="115" fill="#1C1C1C" font-family="Arial" font-size="6">SMS: "Fluffy's checkup</text>
  <text x="225" y="122" fill="#1C1C1C" font-family="Arial" font-size="6">tomorrow at 2pm"</text>
  
  <!-- Email notifications -->
  <rect x="290" y="105" width="60" height="20" fill="#F9F9F7" stroke="#A8BFA3"/>
  <text x="295" y="115" fill="#1C1C1C" font-family="Arial" font-size="6">Email: Vaccination</text>
  <text x="295" y="122" fill="#1C1C1C" font-family="Arial" font-size="6">schedule & tips</text>
  
  <!-- Emergency protocols -->
  <rect x="220" y="135" width="130" height="25" fill="#FFE6E6" stroke="#C56B47"/>
  <text x="225" y="145" fill="#1C1C1C" font-family="Arial" font-size="6">Emergency Protocol Automation</text>
  <text x="225" y="155" fill="#C56B47" font-family="Arial" font-size="6">After-hours triage & vet contact</text>
  
  <!-- Performance metrics -->
  <text x="220" y="175" fill="#1C1C1C" font-family="Arial" font-size="7">No-shows: 25% → 8% (68% reduction)</text>
  <text x="220" y="185" fill="#1C1C1C" font-family="Arial" font-size="7">Compliance: 60% → 85% (42% increase)</text>
  
  <!-- Veterinary clinic elements -->
  <g transform="translate(60, 245)">
    <!-- Examination table -->
    <rect x="0" y="10" width="25" height="15" fill="#A8BFA3"/>
    <rect x="2" y="8" width="21" height="3" fill="#C56B47"/>
    <!-- Stethoscope -->
    <circle cx="30" cy="15" r="3" fill="#1C1C1C"/>
    <path d="M27 15 Q25 10 30 10 Q35 10 33 15" fill="none" stroke="#1C1C1C" stroke-width="2"/>
  </g>
  
  <!-- Pet icons -->
  <g transform="translate(140, 240)">
    <!-- Dog -->
    <circle cx="0" cy="10" r="6" fill="#C56B47"/>
    <circle cx="-3" cy="7" r="2" fill="#C56B47"/>
    <circle cx="3" cy="7" r="2" fill="#C56B47"/>
    <circle cx="-1" cy="10" r="1" fill="#1C1C1C"/>
    <circle cx="1" cy="10" r="1" fill="#1C1C1C"/>
    <!-- Cat -->
    <circle cx="20" cy="10" r="6" fill="#A8BFA3"/>
    <path d="M17 7 L20 4 L23 7" fill="#A8BFA3"/>
    <circle cx="18" cy="10" r="1" fill="#1C1C1C"/>
    <circle cx="22" cy="10" r="1" fill="#1C1C1C"/>
  </g>
  
  <!-- Medical cross -->
  <g transform="translate(250, 245)">
    <rect x="8" y="0" width="4" height="20" fill="#C56B47"/>
    <rect x="0" y="8" width="20" height="4" fill="#C56B47"/>
    <rect x="6" y="-2" width="8" height="24" fill="none" stroke="#4A7C59" stroke-width="1"/>
  </g>
  
  <!-- Automation dashboard icon -->
  <rect x="300" y="245" width="25" height="20" fill="#4A7C59"/>
  <rect x="305" y="250" width="15" height="10" fill="#F9F9F7"/>
  <rect x="307" y="252" width="3" height="2" fill="#A8BFA3"/>
  <rect x="312" y="252" width="3" height="2" fill="#A8BFA3"/>
  <rect x="317" y="252" width="3" height="2" fill="#A8BFA3"/>
  <rect x="307" y="256" width="5" height="2" fill="#C56B47"/>
  <rect x="314" y="256" width="5" height="2" fill="#C56B47"/>
  
  <!-- Time savings highlight -->
  <rect x="340" y="245" width="55" height="25" fill="#A8BFA3" opacity="0.9"/>
  <text x="345" y="255" fill="#1C1C1C" font-family="Arial" font-size="8">18 hours/week</text>
  <text x="345" y="267" fill="#4A7C59" font-family="Arial" font-size="8">time saved</text>
  
  <!-- Legal disclaimer -->
  <text x="300" y="290" fill="#666666" font-family="Arial" font-size="8" opacity="0.7">FICTIONAL DEMONSTRATION</text>
</svg>