<svg width="24" height="24" viewBox="0 0 24 24" fill="none" xmlns="http://www.w3.org/2000/svg">
  <title>Graphic Design</title>
  <desc>Color palette with brush tool for design</desc>
  <!-- Palette outline -->
  <path d="M12 2C6.48 2 2 6.48 2 12C2 17.52 6.48 22 12 22C13.19 22 14 21.19 14 20C14 19.47 13.8 19 13.47 18.67C13.14 18.33 13 17.87 13 17.33C13 16.23 13.9 15.33 15 15.33H17C19.76 15.33 22 13.09 22 10.33C22 5.73 17.52 2 12 2Z" stroke="#0B3D2E" stroke-width="2" stroke-linecap="round" stroke-linejoin="round"/>
  
  <!-- Color spots -->
  <circle cx="7" cy="10" r="1.5" fill="#0B3D2E" opacity="0.8"/>
  <circle cx="11" cy="7" r="1.5" fill="#0B3D2E" opacity="0.6"/>
  <circle cx="16" cy="9" r="1.5" fill="#0B3D2E" opacity="0.4"/>
  <circle cx="9" cy="14" r="1.5" fill="#0B3D2E" opacity="0.5"/>
  
  <!-- Brush tip indicator -->
  <path d="M19 10 L20.5 8.5" stroke="#0B3D2E" stroke-width="1.5" stroke-linecap="round" opacity="0.7"/>
</svg>