<svg viewBox="0 0 400 300" xmlns="http://www.w3.org/2000/svg">
  <defs>
    <linearGradient id="socialGradient" x1="0%" y1="0%" x2="100%" y2="100%">
      <stop offset="0%" style="stop-color:#F5F0E6;stop-opacity:1" />
      <stop offset="100%" style="stop-color:#4A7C59;stop-opacity:1" />
    </linearGradient>
  </defs>
  
  <!-- Background -->
  <rect width="400" height="300" fill="url(#socialGradient)"/>
  
  <!-- Main dashboard -->
  <rect x="30" y="30" width="340" height="210" rx="8" fill="#F9F9F7" stroke="#C56B47" stroke-width="2"/>
  
  <!-- Header -->
  <rect x="35" y="35" width="330" height="25" fill="#4A7C59"/>
  <text x="40" y="50" fill="#F5F0E6" font-family="Arial" font-size="12">Iron Will Fitness - Digital Transformation</text>
  
  <!-- Social media feeds -->
  <rect x="40" y="70" width="100" height="130" fill="#FFF" stroke="#C56B47"/>
  <rect x="45" y="75" width="90" height="15" fill="#E1306C"/>
  <text x="48" y="85" fill="#FFF" font-family="Arial" font-size="8">Instagram</text>
  
  <!-- Instagram posts -->
  <rect x="48" y="95" width="35" height="25" fill="#C56B47"/>
  <text x="50" y="105" fill="#FFF" font-family="Arial" font-size="5">Before</text>
  
  <rect x="88" y="95" width="35" height="25" fill="#4A7C59"/>
  <text x="95" y="105" fill="#FFF" font-family="Arial" font-size="5">After</text>
  
  <text x="48" y="130" fill="#1C1C1C" font-family="Arial" font-size="6">Member transformation!</text>
  <text x="48" y="140" fill="#666" font-family="Arial" font-size="5">❤️ 45 likes 💬 12 comments</text>
  
  <rect x="48" y="150" width="75" height="20" fill="#F5F0E6"/>
  <text x="50" y="160" fill="#1C1C1C" font-family="Arial" font-size="6">New class schedule posted</text>
  <text x="50" y="170" fill="#666" font-family="Arial" font-size="5">❤️ 28 likes 💬 8 comments</text>
  
  <!-- Facebook section -->
  <rect x="150" y="70" width="100" height="130" fill="#FFF" stroke="#4A7C59"/>
  <rect x="155" y="75" width="90" height="15" fill="#1877F2"/>
  <text x="158" y="85" fill="#FFF" font-family="Arial" font-size="8">Facebook</text>
  
  <!-- Facebook ads -->
  <rect x="158" y="95" width="80" height="30" fill="#E3F2FD"/>
  <text x="160" y="105" fill="#1C1C1C" font-family="Arial" font-size="6">Free Trial Offer</text>
  <text x="160" y="115" fill="#1877F2" font-family="Arial" font-size="5">Sponsored • Start your fitness journey</text>
  <rect x="160" y="120" width="20" height="8" fill="#4A7C59"/>
  <text x="162" y="126" fill="#FFF" font-family="Arial" font-size="4">SIGN UP</text>
  
  <!-- Engagement metrics -->
  <text x="158" y="140" fill="#1C1C1C" font-family="Arial" font-size="6">150 → 850 followers</text>
  <text x="158" y="152" fill="#C56B47" font-family="Arial" font-size="7" font-weight="bold">467% growth</text>
  
  <text x="158" y="170" fill="#1C1C1C" font-family="Arial" font-size="6">2% → 8% engagement</text>
  <text x="158" y="182" fill="#4A7C59" font-family="Arial" font-size="7" font-weight="bold">300% improvement</text>
  
  <!-- Performance metrics -->
  <rect x="260" y="70" width="100" height="130" fill="#F5F0E6" stroke="#1C1C1C"/>
  <rect x="265" y="75" width="90" height="15" fill="#1C1C1C"/>
  <text x="268" y="85" fill="#F5F0E6" font-family="Arial" font-size="8">Results</text>
  
  <!-- Membership stats -->
  <text x="270" y="105" fill="#1C1C1C" font-family="Arial" font-size="7">Memberships:</text>
  <text x="270" y="118" fill="#C56B47" font-family="Arial" font-size="8" font-weight="bold">85 → 170</text>
  <text x="270" y="130" fill="#4A7C59" font-family="Arial" font-size="7">100% increase</text>
  
  <text x="270" y="150" fill="#1C1C1C" font-family="Arial" font-size="7">New signups/month:</text>
  <text x="270" y="163" fill="#C56B47" font-family="Arial" font-size="8" font-weight="bold">8 → 25</text>
  <text x="270" y="175" fill="#4A7C59" font-family="Arial" font-size="7">213% increase</text>
  
  <!-- Fitness equipment icons -->
  <rect x="60" y="250" width="20" height="4" fill="#1C1C1C"/>
  <circle cx="58" cy="252" r="4" fill="#4A7C59"/>
  <circle cx="82" cy="252" r="4" fill="#4A7C59"/>
  
  <!-- Person exercising -->
  <circle cx="120" cy="255" r="8" fill="#C56B47"/>
  <rect x="116" y="263" width="8" height="12" fill="#4A7C59"/>
  <rect x="110" y="268" width="6" height="8" fill="#4A7C59"/>
  <rect x="124" y="268" width="6" height="8" fill="#4A7C59"/>
  
  <!-- Growth arrow -->
  <path d="M300 260 L320 250 L340 255 L360 245" stroke="#C56B47" stroke-width="3" fill="none"/>
  <path d="M355 245 L360 245 L360 250 Z" fill="#C56B47"/>
  
  <!-- Legal disclaimer -->
  <text x="300" y="290" fill="#666666" font-family="Arial" font-size="8" opacity="0.7">FICTIONAL DEMONSTRATION</text>
</svg>