<svg viewBox="0 0 400 300" xmlns="http://www.w3.org/2000/svg">
  <defs>
    <linearGradient id="plumbingGradient" x1="0%" y1="0%" x2="100%" y2="100%">
      <stop offset="0%" style="stop-color:#F9F9F7;stop-opacity:1" />
      <stop offset="100%" style="stop-color:#1C1C1C;stop-opacity:1" />
    </linearGradient>
  </defs>
  
  <!-- Background -->
  <rect width="400" height="300" fill="url(#plumbingGradient)"/>
  
  <!-- Google search interface -->
  <rect x="40" y="40" width="320" height="180" rx="8" fill="#F9F9F7" stroke="#4A7C59" stroke-width="2"/>
  
  <!-- Google header -->
  <rect x="45" y="45" width="310" height="30" fill="#F5F0E6"/>
  <text x="50" y="60" fill="#1C1C1C" font-family="Arial" font-size="10">Google</text>
  
  <!-- Search bar -->
  <rect x="50" y="65" width="250" height="20" fill="#FFF" stroke="#1C1C1C"/>
  <text x="55" y="77" fill="#666" font-family="Arial" font-size="8">emergency plumber near me</text>
  
  <!-- Search results -->
  <rect x="50" y="95" width="300" height="110" fill="#FFF"/>
  
  <!-- Ad result -->
  <rect x="55" y="100" width="290" height="35" fill="#FFF8DC" stroke="#C56B47"/>
  <text x="60" y="110" fill="#1C1C1C" font-family="Arial" font-size="8" font-weight="bold">Rapid Response Plumbing - 24/7 Emergency</text>
  <text x="60" y="120" fill="#4A7C59" font-family="Arial" font-size="6">rapidresponseplumbing.com/</text>
  <text x="60" y="130" fill="#1C1C1C" font-family="Arial" font-size="6">Emergency plumber available 24/7. Free estimates. Call now!</text>
  
  <!-- Organic results -->
  <rect x="55" y="140" width="290" height="20" fill="#FFF"/>
  <text x="60" y="150" fill="#1C1C1C" font-family="Arial" font-size="7">Emergency Plumbing Services - Call 24/7</text>
  <text x="60" y="157" fill="#666" font-family="Arial" font-size="5">Local emergency plumbers available around the clock...</text>
  
  <rect x="55" y="165" width="290" height="20" fill="#FFF"/>
  <text x="60" y="175" fill="#1C1C1C" font-family="Arial" font-size="7">24 Hour Plumber - Emergency Repairs</text>
  <text x="60" y="182" fill="#666" font-family="Arial" font-size="5">Fast response times for all plumbing emergencies...</text>
  
  <!-- Mobile interface -->
  <rect x="300" y="60" width="80" height="120" rx="10" fill="#1C1C1C"/>
  <rect x="305" y="68" width="70" height="100" fill="#F9F9F7"/>
  
  <!-- Mobile ad -->
  <rect x="308" y="72" width="64" height="40" fill="#FFF8DC"/>
  <text x="310" y="80" fill="#1C1C1C" font-family="Arial" font-size="5">Emergency Plumber</text>
  <text x="310" y="87" fill="#4A7C59" font-family="Arial" font-size="4">24/7 Available</text>
  <rect x="310" y="95" width="25" height="12" fill="#C56B47"/>
  <text x="312" y="103" fill="#FFF" font-family="Arial" font-size="4">CALL NOW</text>
  
  <!-- Emergency icons -->
  <circle cx="80" cy="250" r="15" fill="#C56B47"/>
  <path d="M75 250 Q80 245 85 250 Q80 255 75 250" fill="#F5F0E6"/>
  <rect x="77" y="248" width="6" height="4" fill="#1C1C1C"/>
  
  <!-- Plumbing tools -->
  <rect x="320" y="230" width="25" height="4" fill="#1C1C1C" transform="rotate(45 332 232)"/>
  <circle cx="320" cy="232" r="3" fill="#4A7C59"/>
  <rect x="340" y="225" width="4" height="15" fill="#C56B47"/>
  
  <!-- Performance metrics -->
  <rect x="50" y="240" width="180" height="35" fill="#1C1C1C" opacity="0.9"/>
  <text x="55" y="252" fill="#F5F0E6" font-family="Arial" font-size="8">180% after-hours revenue increase</text>
  <text x="55" y="265" fill="#C56B47" font-family="Arial" font-size="8">12 → 45 emergency calls/month</text>
  
  <!-- Legal disclaimer -->
  <text x="300" y="290" fill="#666666" font-family="Arial" font-size="8" opacity="0.7">FICTIONAL DEMONSTRATION</text>
</svg>